# xmcd
#
# Track frame offsets:
# 150
# 14541
# 30223
# 49388
# 64041
# 80486
# 100175
# 117042
# 135258
# 153810
# 165562
#
# Disc length: 2467 seconds
#
#
# Revision: 0
# Processed by: cddbd v1.5.2PL0 Copyright (c) Steve Scherf et al.
# Submitted via: FreeRIP 2.951 
#
DISCID=7909a10b
DTITLE=Ashton Shepard - Sounds So Good
DYEAR=2008
DGENRE=Country
TTITLE0=Takin' Off This Pain
TTITLE1=Sounds So Good
TTITLE2=Lost In Love
TTITLE3=I Ain't Dead Yet
TTITLE4=Not Right Now
TTITLE5=Old Memory
TTITLE6=The Pickin' Shed
TTITLE7=Regular Joe
TTITLE8=How Big Are Angel Wings
TTITLE9=The Bigger Heart
TTITLE10=Whiskey Won the Battle
EXTD=
EXTT0=
EXTT1=
EXTT2=
EXTT3=
EXTT4=
EXTT5=
EXTT6=
EXTT7=
EXTT8=
EXTT9=
EXTT10=
PLAYORDER=
